<?xml version="1.0" encoding="utf-8"?>
<!-- Generator: Adobe Illustrator 28.0.0, SVG Export Plug-In . SVG Version: 6.00 Build 0)  -->
<svg version="1.1" id="Capa_1" xmlns="http://www.w3.org/2000/svg" xmlns:xlink="http://www.w3.org/1999/xlink" x="0px" y="0px"
	 viewBox="0 0 300 100" style="enable-background:new 0 0 300 100;" xml:space="preserve">
<style type="text/css">
	.st0{fill:none;stroke:#FFFFFF;stroke-width:3;stroke-miterlimit:10;}
	.st1{fill:#FFFFFF;}
</style>
<g>
	<g>
		<path class="st0" d="M40.92,77.43c-4.75,0-8.71-0.94-11.88-2.81s-5.39-4.51-6.66-7.92c-1.27-3.41-1.45-7.39-0.54-11.95l5.69-28.44
			h9.36l-5.69,28.3c-0.43,2.45-0.54,4.6-0.32,6.44c0.22,1.85,0.78,3.37,1.69,4.57c0.91,1.2,2.16,2.1,3.74,2.7
			c1.58,0.6,3.43,0.9,5.54,0.9c2.74,0,5.08-0.51,7.02-1.55c1.94-1.03,3.56-2.62,4.86-4.75c1.3-2.13,2.3-4.93,3.02-8.39l5.62-28.22
			h9.22l-5.76,28.87c-1.49,7.44-4.32,13.01-8.5,16.7C53.16,75.58,47.69,77.43,40.92,77.43z"/>
		<path class="st1" d="M102.48,37.76c3.31,0,6.12,0.67,8.42,2.02c2.3,1.34,3.92,3.35,4.86,6.01s1.02,5.87,0.25,9.61l-4.25,21.31
			h-9.07l4.25-21.1c0.62-3.12,0.33-5.56-0.86-7.31c-1.2-1.75-3.38-2.63-6.55-2.63c-3.31,0-6.05,0.91-8.21,2.74
			c-2.16,1.82-3.65,4.61-4.46,8.35L82.9,76.71h-9l7.63-38.45h8.57l-2.16,11.02l-1.37-3.53c1.78-2.74,4.04-4.75,6.8-6.05
			C96.13,38.41,99.17,37.76,102.48,37.76z"/>
		<path class="st1" d="M123.22,76.71l7.63-38.45h9l-7.63,38.45H123.22z M137.33,31.93c-1.58,0-2.87-0.49-3.85-1.48
			c-0.98-0.98-1.48-2.17-1.48-3.56c0-1.63,0.56-3,1.69-4.1c1.13-1.1,2.6-1.66,4.43-1.66c1.58,0,2.88,0.47,3.89,1.4
			c1.01,0.94,1.51,2.08,1.51,3.42c0,1.78-0.56,3.22-1.69,4.32C140.7,31.38,139.2,31.93,137.33,31.93z"/>
		<path class="st1" d="M161.38,77.22c-3.12,0-5.96-0.67-8.53-2.02c-2.57-1.34-4.61-3.28-6.12-5.8c-1.51-2.52-2.27-5.58-2.27-9.18
			c0-3.21,0.54-6.19,1.62-8.93c1.08-2.74,2.6-5.12,4.57-7.16c1.97-2.04,4.27-3.61,6.91-4.72c2.64-1.1,5.47-1.66,8.5-1.66
			c3.26,0,6.05,0.59,8.35,1.76c2.3,1.18,4.07,2.93,5.29,5.26c1.22,2.33,1.79,5.22,1.69,8.68c-0.1,4.75-0.95,8.92-2.56,12.49
			c-1.61,3.58-3.9,6.35-6.88,8.32C168.98,76.23,165.46,77.22,161.38,77.22z M163.68,69.51c2.54,0,4.81-0.61,6.8-1.84
			c1.99-1.22,3.56-2.92,4.72-5.08c1.15-2.16,1.73-4.66,1.73-7.49c0-2.98-0.89-5.33-2.66-7.06c-1.78-1.73-4.3-2.59-7.56-2.59
			c-2.5,0-4.75,0.61-6.77,1.84c-2.02,1.22-3.59,2.92-4.72,5.08c-1.13,2.16-1.69,4.66-1.69,7.49c0,2.98,0.89,5.33,2.66,7.06
			C157.97,68.65,160.46,69.51,163.68,69.51z M169.87,90.68l4.54-22.82l2.74-10.08l1.58-9.43l2.02-10.08h8.64l-10.51,52.42H169.87z"
			/>
		<path class="st1" d="M209.9,77.22c-3.17,0-5.89-0.67-8.17-2.02c-2.28-1.34-3.9-3.34-4.86-5.98c-0.96-2.64-1.06-5.86-0.29-9.65
			l4.25-21.31h9l-4.25,21.1c-0.58,3.12-0.28,5.56,0.9,7.31c1.18,1.75,3.3,2.63,6.37,2.63c3.26,0,5.98-0.91,8.14-2.74
			c2.16-1.82,3.62-4.61,4.39-8.35l4.03-19.94h8.93l-7.63,38.45h-8.57l2.23-10.94l1.44,3.46c-1.87,2.74-4.19,4.75-6.95,6.05
			C216.11,76.57,213.12,77.22,209.9,77.22z"/>
		<path class="st1" d="M261.89,77.22c-3.89,0-7.25-0.71-10.08-2.12c-2.83-1.42-5.03-3.38-6.59-5.9c-1.56-2.52-2.34-5.48-2.34-8.89
			c0-4.42,0.96-8.3,2.88-11.66c1.92-3.36,4.54-6.01,7.85-7.96c3.31-1.94,7.1-2.92,11.38-2.92c3.6,0,6.73,0.7,9.4,2.09
			c2.66,1.39,4.73,3.34,6.19,5.83c1.46,2.5,2.2,5.47,2.2,8.93c0,1.01-0.06,1.97-0.18,2.88c-0.12,0.91-0.25,1.8-0.4,2.66h-32.62
			l1.01-5.98h27.36l-3.67,2.02c0.38-2.45,0.22-4.49-0.5-6.12c-0.72-1.63-1.87-2.88-3.46-3.74c-1.58-0.86-3.48-1.3-5.69-1.3
			c-2.64,0-4.93,0.62-6.88,1.87c-1.94,1.25-3.45,2.98-4.5,5.18c-1.06,2.21-1.58,4.8-1.58,7.78c0,3.12,0.9,5.53,2.7,7.24
			c1.8,1.71,4.6,2.56,8.39,2.56c2.16,0,4.22-0.36,6.19-1.08c1.97-0.72,3.6-1.7,4.9-2.95l3.74,6.26c-2.02,1.78-4.42,3.11-7.2,4
			C267.6,76.77,264.77,77.22,261.89,77.22z"/>
	</g>
</g>
</svg>
