<?xml version="1.0" encoding="utf-8"?>
<!-- Generator: Adobe Illustrator 28.0.0, SVG Export Plug-In . SVG Version: 6.00 Build 0)  -->
<svg version="1.1" id="Capa_1" xmlns="http://www.w3.org/2000/svg" xmlns:xlink="http://www.w3.org/1999/xlink" x="0px" y="0px"
	 viewBox="0 0 100 100" style="enable-background:new 0 0 100 100;" xml:space="preserve">
<style type="text/css">
	.st0{fill:none;stroke:#FFFFFF;stroke-width:4;stroke-miterlimit:10;}
</style>
<g>
	<g>
		<path class="st0" d="M46.26,91.91c-7.26,0-13.31-1.43-18.15-4.29c-4.84-2.86-8.23-6.89-10.18-12.1
			c-1.94-5.21-2.22-11.29-0.82-18.26l8.69-43.45h14.3l-8.69,43.23c-0.66,3.74-0.82,7.02-0.49,9.84c0.33,2.82,1.19,5.15,2.58,6.98
			c1.39,1.83,3.3,3.21,5.72,4.12c2.42,0.92,5.24,1.38,8.47,1.38c4.18,0,7.75-0.79,10.73-2.36c2.97-1.58,5.44-4,7.42-7.26
			c1.98-3.26,3.52-7.53,4.62-12.81l8.58-43.12h14.08l-8.8,44.11c-2.27,11.37-6.6,19.87-12.98,25.52
			C64.96,89.09,56.6,91.91,46.26,91.91z"/>
	</g>
</g>
</svg>
